<?xml version="1.0" encoding="UTF-8" standalone="no"?>
<svg width="17px" height="17px" viewBox="0 0 17 17" version="1.1" xmlns="http://www.w3.org/2000/svg" xmlns:xlink="http://www.w3.org/1999/xlink">
    <!-- Generator: Sketch 46.1 (44463) - http://www.bohemiancoding.com/sketch -->
    <title>Delete</title>
    <desc>Created with Sketch.</desc>
    <defs></defs>
    <g id="Symbols" stroke="none" stroke-width="1" fill="none" fill-rule="evenodd">
        <g id="icons/mobile/basic/clean" transform="translate(-4.000000, -4.000000)" fill="#A8B7C7">
            <path d="M12.5,4 C7.82882883,4 4,7.82882883 4,12.5 C4,17.1711712 7.82882883,21 12.5,21 C17.1711712,21 21,17.1711712 21,12.5 C21,7.82882883 17.1711712,4 12.5,4 L12.5,4 Z M14.2494802,12.7713098 L16.9438669,15.4656965 C17.018711,15.6153846 17.018711,15.7650728 16.9438669,15.9147609 L15.970894,16.8877339 C15.8212058,17.037422 15.5966736,17.037422 15.4469854,16.8877339 L12.7525988,14.1933472 C12.6029106,14.043659 12.4532225,14.043659 12.3035343,14.1933472 L9.60914761,16.8877339 C9.45945946,17.037422 9.23492723,17.037422 9.08523909,16.8877339 L8.11226611,15.9147609 C8.03742204,15.7650728 8.03742204,15.6153846 8.11226611,15.4656965 L10.8066528,12.7713098 C10.956341,12.6216216 10.956341,12.3970894 10.8066528,12.2474012 L8.11226611,9.55301455 C7.96257796,9.4033264 7.96257796,9.17879418 8.11226611,9.02910603 L9.08523909,8.05613306 C9.23492723,7.98128898 9.38461538,7.98128898 9.53430353,8.05613306 L12.3035343,10.8253638 C12.4532225,10.975052 12.6029106,10.975052 12.7525988,10.8253638 L15.4469854,8.13097713 C15.5966736,7.98128898 15.8212058,7.98128898 15.970894,8.13097713 L16.9438669,9.1039501 C17.018711,9.25363825 17.018711,9.4033264 16.9438669,9.55301455 L14.2494802,12.2474012 C14.0997921,12.3970894 14.0997921,12.6216216 14.2494802,12.7713098 L14.2494802,12.7713098 Z" id="Delete"></path>
        </g>
    </g>
</svg>