<?xml version="1.0" encoding="UTF-8" standalone="no"?>
<svg width="32px" height="32px" viewBox="0 0 32 32" version="1.1" xmlns="http://www.w3.org/2000/svg" xmlns:xlink="http://www.w3.org/1999/xlink">
    <!-- Generator: Sketch 46.2 (44496) - http://www.bohemiancoding.com/sketch -->
    <title>logo-facebook</title>
    <desc>Created with Sketch.</desc>
    <defs></defs>
    <g id="Page-1" stroke="none" stroke-width="1" fill="none" fill-rule="evenodd">
        <g id="Buscador" transform="translate(-1000.000000, -1155.000000)" fill-rule="nonzero" fill="#A8B7C7">
            <g id="logo-facebook" transform="translate(1000.000000, 1155.000000)">
                <path d="M30.7,0 L1.3,0 C0.6,0 0,0.6 0,1.3 L0,30.6 C0,31.4 0.6,32 1.3,32 L17,32 L17,20 L13,20 L13,15 L17,15 L17,11 C17,6.9 19.6,4.8 23.3,4.8 C25.1,4.8 26.6,5 27,5 L27,9.3 L24.4,9.3 C22.4,9.3 21.9,10.3 21.9,11.7 L21.9,15 L26.9,15 L25.9,20 L21.9,20 L22,32 L30.6,32 C31.3,32 31.9,31.4 31.9,30.7 L31.9,1.3 C32,0.6 31.4,0 30.7,0 Z" id="Shape"></path>
            </g>
        </g>
    </g>
</svg>