<?xml version="1.0" encoding="UTF-8" standalone="no"?>
<svg width="32px" height="32px" viewBox="0 0 32 32" version="1.1" xmlns="http://www.w3.org/2000/svg" xmlns:xlink="http://www.w3.org/1999/xlink">
    <!-- Generator: Sketch 46.2 (44496) - http://www.bohemiancoding.com/sketch -->
    <title>logo-instagram</title>
    <desc>Created with Sketch.</desc>
    <defs></defs>
    <g id="Page-1" stroke="none" stroke-width="1" fill="none" fill-rule="evenodd">
        <g id="Buscador" transform="translate(-1119.000000, -1154.000000)" fill-rule="nonzero" fill="#A8B7C7">
            <g id="logo-instagram" transform="translate(1119.000000, 1154.000000)">
                <path d="M16,2.883 C20.272,2.883 20.778,2.899 22.465,2.976 C24.286,3.059 25.976,3.424 27.276,4.724 C28.576,6.024 28.941,7.714 29.024,9.535 C29.101,11.222 29.117,11.728 29.117,16 C29.117,20.272 29.101,20.778 29.024,22.465 C28.941,24.286 28.576,25.976 27.276,27.276 C25.976,28.576 24.286,28.941 22.465,29.024 C20.778,29.101 20.272,29.117 16,29.117 C11.728,29.117 11.222,29.101 9.535,29.024 C7.714,28.941 6.024,28.576 4.724,27.276 C3.424,25.976 3.059,24.286 2.976,22.465 C2.899,20.778 2.883,20.272 2.883,16 C2.883,11.728 2.899,11.222 2.976,9.535 C3.059,7.714 3.424,6.024 4.724,4.724 C6.024,3.424 7.714,3.059 9.535,2.976 C11.222,2.899 11.728,2.883 16,2.883 L16,2.883 Z M16,0 C11.655,0 11.11,0.018 9.403,0.096 C6.803,0.215 4.519,0.852 2.685,2.685 C0.852,4.518 0.215,6.802 0.096,9.403 C0.018,11.11 0,11.655 0,16 C0,20.345 0.018,20.89 0.096,22.597 C0.215,25.197 0.852,27.481 2.685,29.315 C4.518,31.148 6.802,31.785 9.403,31.904 C11.11,31.982 11.655,32 16,32 C20.345,32 20.89,31.982 22.597,31.904 C25.197,31.785 27.481,31.148 29.315,29.315 C31.148,27.482 31.785,25.198 31.904,22.597 C31.982,20.89 32,20.345 32,16 C32,11.655 31.982,11.11 31.904,9.403 C31.785,6.803 31.148,4.519 29.315,2.685 C27.482,0.852 25.198,0.215 22.597,0.096 C20.89,0.018 20.345,0 16,0 L16,0 Z" id="Shape"></path>
                <path d="M16,7.784 C11.462,7.784 7.784,11.463 7.784,16 C7.784,20.538 11.463,24.216 16,24.216 C20.537,24.216 24.216,20.537 24.216,16 C24.216,11.462 20.538,7.784 16,7.784 Z M16,21.333 C13.054,21.333 10.667,18.945 10.667,16 C10.667,13.054 13.055,10.667 16,10.667 C18.946,10.667 21.333,13.055 21.333,16 C21.333,18.946 18.946,21.333 16,21.333 Z" id="Shape"></path>
                <circle id="Oval" cx="24.541" cy="7.459" r="1.92"></circle>
            </g>
        </g>
    </g>
</svg>