<?xml version="1.0" encoding="UTF-8" standalone="no"?>
<svg width="46px" height="50px" viewBox="0 0 46 50" version="1.1" xmlns="http://www.w3.org/2000/svg" xmlns:xlink="http://www.w3.org/1999/xlink">
    <!-- Generator: Sketch 46.2 (44496) - http://www.bohemiancoding.com/sketch -->
    <title>icon clave unica</title>
    <desc>Created with Sketch.</desc>
    <defs></defs>
    <g id="Page-1" stroke="none" stroke-width="1" fill="none" fill-rule="evenodd">
        <g id="Home-Copy-B-Copy" transform="translate(-283.000000, -1088.000000)" fill="#FFFFFF">
            <g id="icon-clave-unica" transform="translate(281.000000, 1086.000000)">
                <g id="Page-1" transform="translate(2.200000, 2.404453)">
                    <path d="M42.54443,15.0059688 C40.62673,11.6674865 37.87493,8.84656252 34.58653,6.8480616 L31.99333,11.1308928 C34.56263,12.6923844 36.71263,14.8963659 38.21093,17.5045959 C39.75353,20.1899688 40.56883,23.2580505 40.56883,26.3771265 C40.56883,36.2017202 32.59073,44.1946219 22.78433,44.1946219 C12.97803,44.1946219 5.00003,36.2017202 5.00003,26.3771265 C5.00003,23.2702731 5.80933,20.2126108 7.34053,17.5348519 C8.82753,14.9344364 10.96303,12.7325588 13.51603,11.1672601 L10.90603,6.89464787 C7.63863,8.89785751 4.90543,11.7161766 3.00203,15.0448408 C1.03813,18.4793009 3e-05,22.3980579 3e-05,26.3771265 C3e-05,32.4744178 2.37003,38.2067332 6.67333,42.5181173 C10.97673,46.8295013 16.69843,49.2038983 22.78433,49.2038983 C28.87033,49.2038983 34.59203,46.8295013 38.89543,42.5181173 C43.19883,38.2067332 45.56883,32.4744178 45.56883,26.3771265 C45.56883,22.3824289 44.52303,18.4503473 42.54443,15.0059688" id="Fill-1"></path>
                    <path d="M22.78441,23.4935165 C24.30081,23.4935165 25.53441,24.7294052 25.53441,26.2486186 C25.53441,27.7678319 24.30081,29.0037206 22.78441,29.0037206 C21.26801,29.0037206 20.03441,27.7678319 20.03441,26.2486186 C20.03441,24.7294052 21.26801,23.4935165 22.78441,23.4935165 M22.78441,33.0111417 C26.51231,33.0111417 29.53441,29.9834349 29.53441,26.2486186 C29.53441,23.5017317 27.89871,21.1390564 25.55071,20.0804961 L25.55071,5.00928646 L28.91811,5.00928646 L28.91811,1.00185529e-05 L20.55071,1.00185529e-05 L20.55071,19.8669006 C17.92091,20.7908115 16.03441,23.2983551 16.03441,26.2486186 C16.03441,29.9834349 19.05651,33.0111417 22.78441,33.0111417" id="Fill-4"></path>
                </g>
            </g>
        </g>
    </g>
</svg>