<?xml version="1.0" encoding="UTF-8" standalone="no"?>
<svg width="32px" height="24px" viewBox="0 0 32 24" version="1.1" xmlns="http://www.w3.org/2000/svg" xmlns:xlink="http://www.w3.org/1999/xlink">
    <!-- Generator: Sketch 46.2 (44496) - http://www.bohemiancoding.com/sketch -->
    <title>logo-youtube</title>
    <desc>Created with Sketch.</desc>
    <defs></defs>
    <g id="Page-1" stroke="none" stroke-width="1" fill="none" fill-rule="evenodd">
        <g id="Buscador" transform="translate(-1178.000000, -1159.000000)" fill-rule="nonzero" fill="#A8B7C7">
            <g id="logo-youtube" transform="translate(1178.000000, 1159.000000)">
                <path d="M31.7,5.6 C31.7,5.6 31.4,3.4 30.4,2.4 C29.2,1.1 27.8,1.1 27.2,1 C22.7,0.7 16,0.7 16,0.7 L16,0.7 C16,0.7 9.3,0.7 4.8,1 C4.2,1.1 2.8,1.1 1.6,2.4 C0.6,3.4 0.3,5.6 0.3,5.6 C0.3,5.6 0,8.2 0,10.8 L0,13.2 C0,15.8 0.3,18.4 0.3,18.4 C0.3,18.4 0.6,20.6 1.6,21.6 C2.8,22.9 4.4,22.8 5.1,23 C7.7,23.2 16,23.3 16,23.3 C16,23.3 22.7,23.3 27.2,23 C27.8,22.9 29.2,22.9 30.4,21.6 C31.4,20.6 31.7,18.4 31.7,18.4 C31.7,18.4 32,15.8 32,13.2 L32,10.8 C32,8.2 31.7,5.6 31.7,5.6 Z M12.7,16.2 L12.7,7.2 L21.3,11.7 L12.7,16.2 Z" id="Shape"></path>
            </g>
        </g>
    </g>
</svg>